PathFileType	4	(X/Y/Z)	c:/Users/goper/Files/vsCode/490R/osim_files/C10/C10_Static.trc
DataRate	CameraRate	NumFrames	NumMarkers	Units                	OrigDataRate	OrigDataStartFrame	OrigNumFrames
250.00	250.00	7	36	mm	250.0	247	1971
                Frame#	Time	LPSIS			LASIS			LTH1			LTH2			LTH3			LTH4			LLFE			LMFE			LSH1			LSH2			LSH3			LSH4			LLMAL			LMMAL			LCAL			LMTP5			LTOE			LMTP1			RPSIS			RASIS			RTH1			RTH2			RTH3			RTH4			RLFE			RMFE			RSH1			RSH2			RSH3			RSH4			RLMAL			RMMAL			RCAL			RMTP1			RTOE			RMTP5		
		X1	Y1	Z1	X2	Y2	Z2	X3	Y3	Z3	X4	Y4	Z4	X5	Y5	Z5	X6	Y6	Z6	X7	Y7	Z7	X8	Y8	Z8	X9	Y9	Z9	X10	Y10	Z10	X11	Y11	Z11	X12	Y12	Z12	X13	Y13	Z13	X14	Y14	Z14	X15	Y15	Z15	X16	Y16	Z16	X17	Y17	Z17	X18	Y18	Z18	X19	Y19	Z19	X20	Y20	Z20	X21	Y21	Z21	X22	Y22	Z22	X23	Y23	Z23	X24	Y24	Z24	X25	Y25	Z25	X26	Y26	Z26	X27	Y27	Z27	X28	Y28	Z28	X29	Y29	Z29	X30	Y30	Z30	X31	Y31	Z31	X32	Y32	Z32	X33	Y33	Z33	X34	Y34	Z34	X35	Y35	Z35	X36	Y36	Z36

247	0.98400	-324.17612	1027.39966	444.42511	-182.96887	999.97455	292.42059	-271.54797	795.73578	256.54489	-266.72980	749.71118	246.67783	-210.85106	795.91998	254.76668	-215.08931	749.09912	250.80550	-244.98689	492.94064	273.14615	-230.81064	466.57861	387.73898	-308.53143	418.19406	258.59775	-309.79550	370.87592	249.13567	-247.15297	412.10538	261.58368	-255.88289	368.01166	252.38957	-284.54279	92.87049	239.61452	-272.75574	89.94454	319.59344	-347.87311	38.64352	278.96970	-177.11537	28.25983	206.39581	-121.84725	47.06417	266.40652	-156.22809	26.30103	315.71918	-312.41364	1029.35596	524.34027	-143.63847	998.76031	633.32416	-243.75363	757.38269	690.90302	-236.60020	713.34576	694.39563	-182.55887	760.87830	692.77094	-182.49719	716.88037	696.96350	-219.24112	486.23074	667.87799	-207.92751	463.81403	557.29993	-296.73676	404.87842	691.09937	-293.00928	361.81723	700.16394	-233.87267	400.67987	689.20538	-240.71933	360.36847	698.13483	-274.36813	91.26498	699.50348	-255.25404	89.58962	619.83026	-329.51581	40.70442	664.41052	-134.89787	33.52678	637.11108	-104.52303	46.02863	678.73712	-156.31654	30.71959	740.54669
248	0.98800	-324.19162	1027.38904	444.41599	-182.97055	999.97192	292.41840	-271.55753	795.73120	256.53802	-266.73737	749.70801	246.68785	-210.85811	795.88556	254.77155	-215.09471	749.09857	250.81493	-245.01608	492.93518	273.13843	-230.81607	466.56912	387.74686	-308.51953	418.21884	258.61508	-309.77179	370.87543	249.13190	-247.14236	412.09790	261.60367	-255.89709	367.99777	252.38632	-284.55527	92.86707	239.60814	-272.73865	89.94183	319.61563	-347.84528	38.62770	278.96268	-177.14302	28.25017	206.39243	-121.82980	47.05989	266.38599	-156.14316	26.35922	315.75348	-312.40417	1029.34937	524.35052	-143.62492	998.76727	633.31824	-243.72095	757.37299	690.93567	-236.59387	713.36011	694.40851	-182.52473	760.90137	692.79260	-182.47087	716.89343	696.96820	-219.24100	486.22415	667.87653	-207.92819	463.79941	557.29755	-296.72278	404.85983	691.09344	-293.01062	361.79453	700.16785	-234.21190	400.37244	689.28424	-240.71640	360.37521	698.13782	-274.34485	91.24644	699.52289	-255.26950	89.57419	619.81580	-329.49976	40.69978	664.40692	-134.88362	33.54933	637.09802	-104.51404	46.01514	678.73254	-156.29988	30.70496	740.54395
249	0.99200	-324.17969	1027.35278	444.44348	-182.98212	999.95453	292.40457	-271.56284	795.71381	256.54648	-266.76660	749.68341	246.68036	-210.87772	795.89075	254.77890	-215.10931	749.06152	250.80600	-244.99469	492.90280	273.14462	-230.78745	466.54620	387.75107	-308.54486	418.21490	258.65216	-309.79797	370.84634	249.14075	-247.14867	412.07346	261.59109	-255.87169	367.97784	252.38121	-284.54337	92.84792	239.60742	-272.72543	89.91841	319.61823	-347.79245	38.55618	278.98425	-177.14766	28.23776	206.39203	-121.84487	47.02680	266.41660	-156.07220	26.35066	315.79724	-312.39139	1029.29480	524.37085	-143.64977	998.70618	633.31812	-243.69757	757.33600	690.93420	-236.56131	713.29230	694.41254	-182.49550	760.85309	692.79303	-182.48601	716.83112	696.96533	-219.21045	486.18536	667.87494	-207.92850	463.80109	557.30615	-296.69553	404.82968	691.10919	-292.98199	361.76843	700.17035	-233.85890	400.61969	689.22504	-240.71634	360.32513	698.14355	-274.34793	91.21214	699.52545	-255.26880	89.55280	619.82141	-329.50644	40.66774	664.46698	-134.92606	33.44981	637.10632	-104.51691	46.00159	678.75006	-156.28764	30.67386	740.55170
250	0.99600	-324.15283	1027.31555	444.45108	-182.99213	999.94507	292.42712	-271.57581	795.70844	256.55289	-266.77841	749.66901	246.68628	-210.87202	795.87006	254.77423	-215.10857	749.05243	250.81380	-244.99612	492.89752	273.14893	-230.80685	466.53094	387.75931	-308.55402	418.19092	258.60840	-309.76727	370.85739	249.11798	-247.15312	412.05161	261.58856	-255.87267	367.97232	252.38654	-284.54227	92.84104	239.61613	-272.75009	89.87311	319.62994	-347.80252	38.51361	279.00745	-177.13310	28.22874	206.39439	-121.86755	46.96611	266.44299	-156.30336	26.14411	315.73062	-312.35950	1029.26672	524.37811	-143.68285	998.67511	633.36053	-243.70856	757.28619	690.96857	-236.56717	713.25940	694.44769	-182.54826	760.79071	692.82062	-182.50793	716.80713	696.99603	-219.19568	486.14948	667.91351	-207.91582	463.77637	557.31171	-296.70190	404.77536	691.14337	-292.98065	361.72632	700.18976	-233.88881	400.57040	689.25208	-240.74307	360.27982	698.18134	-274.36746	91.14951	699.55365	-255.28014	89.54058	619.82550	-329.50397	40.60111	664.50159	-134.63443	33.65900	637.21466	-104.52375	45.96468	678.79272	-156.32274	30.66099	740.56122
251	1.00000	-324.13947	1027.28821	444.44104	-182.98569	999.92780	292.42337	-271.58240	795.69592	256.57086	-266.76691	749.64551	246.69731	-210.89928	795.87927	254.78568	-215.09818	749.04254	250.80748	-244.98306	492.87384	273.15439	-230.79289	466.50403	387.76819	-308.55423	418.14935	258.64075	-309.74176	370.85349	249.13115	-247.14896	412.04083	261.59653	-255.87292	367.94202	252.39090	-284.54459	92.83115	239.62178	-272.61563	89.95757	319.58203	-347.79352	38.47386	279.05112	-177.12535	28.21825	206.39447	-121.88835	46.94538	266.47311	-156.40576	26.06207	315.75687	-312.34409	1029.24951	524.39587	-143.72937	998.63409	633.38519	-243.72459	757.25555	691.00299	-236.59567	713.21613	694.47870	-182.61340	760.73999	692.84521	-182.54007	716.76044	697.03717	-219.23210	486.09985	667.92169	-207.91151	463.78067	557.32074	-296.71078	404.74493	691.16443	-293.04092	361.73047	700.17847	-233.94070	400.51657	689.29266	-240.78824	360.23297	698.21991	-274.38324	91.11887	699.58997	-255.26379	89.54221	619.81909	-329.50378	40.53264	664.57123	-134.65419	33.60945	637.24249	-104.54932	45.92292	678.81146	-156.33499	30.62264	740.58435
252	1.00400	-324.12747	1027.29041	444.48749	-182.99524	999.95551	292.42670	-271.56033	795.69983	256.55191	-266.75027	749.67407	246.68353	-210.88576	795.86975	254.78600	-215.09512	749.06042	250.81580	-244.99425	492.89883	273.14093	-230.79768	466.50946	387.78372	-308.52469	418.17685	258.64874	-309.72751	370.86118	249.12297	-247.12086	412.04489	261.58871	-255.88159	367.96307	252.39810	-284.53891	92.83811	239.62372	-272.61652	89.95219	319.58838	-347.84421	38.46199	279.07666	-177.13727	28.21784	206.38927	-121.91936	46.91656	266.48395	-156.45291	26.00171	315.76834	-312.32343	1029.24976	524.40955	-143.78191	998.62531	633.40930	-243.76707	757.22620	691.02069	-236.60527	713.19794	694.50549	-182.66272	760.70349	692.83740	-182.57439	716.76599	697.05481	-219.23909	486.10568	667.94385	-207.89908	463.78549	557.31244	-296.72818	404.74829	691.17200	-293.04095	361.73865	700.19958	-233.96683	400.50610	689.31281	-240.82869	360.21945	698.23694	-274.42163	91.10468	699.58405	-255.26340	89.54359	619.82617	-329.51572	40.51040	664.58624	-135.12929	33.31339	637.18542	-104.57343	45.90949	678.82074	-156.38242	30.60510	740.61115
253	1.00800	-324.14597	1027.29419	444.46579	-182.98744	999.94000	292.43420	-271.56625	795.69214	256.57050	-266.75922	749.66296	246.69757	-210.86749	795.88422	254.78110	-215.10606	749.05750	250.81104	-244.96188	492.89911	273.14496	-230.78273	466.52661	387.76624	-308.53592	418.16342	258.67416	-309.74268	370.87564	249.13286	-247.13342	412.04312	261.59039	-255.88695	367.95746	252.38222	-284.54752	92.84471	239.61868	-272.61295	89.97098	319.57446	-347.81271	38.44968	279.08084	-177.13507	28.22037	206.38777	-121.92863	46.93118	266.48013	-156.48814	25.98063	315.73923	-312.37009	1029.27026	524.37360	-143.99188	998.67603	633.23785	-243.74413	757.24231	691.03906	-236.61542	713.20709	694.50800	-182.65932	760.68500	692.84998	-182.57707	716.76721	697.05573	-219.26921	486.08917	667.93365	-207.88158	463.79898	557.31970	-296.72934	404.73712	691.17773	-293.02521	361.72711	700.19708	-233.97020	400.50153	689.32208	-240.82512	360.22141	698.23010	-274.39694	91.10930	699.58179	-255.27306	89.56107	619.82928	-329.51581	40.49781	664.58417	-134.72379	33.42656	637.16309	-104.57211	45.91572	678.82227	-156.38011	30.61616	740.60797
